<svg xmlns="http://www.w3.org/2000/svg" viewBox="0 0 1280 1280"><defs><style>.cls-1{fill:#f5f2ec;}.cls-2{fill:#2c2e1e;}</style></defs><g id="Layer_2" data-name="Layer 2"><rect class="cls-1" width="1280" height="1280"/><path class="cls-2" d="M804.86,668c105.25,5.91,210.3,18.68,315.69,21.83,27,.8,60.8-13.79,58.77-46-1.62-25.75-24.11-40.9-48.75-41.36-127.22-2.41-255.65,14-382.78,21l-8,.43q3.53-1.35,7.76-2.85c80.21-28.33,343.31-93,383.43-128.43,8.3-7.33,13.32-19,13.8-30,.41-9.41-2-19.26-8.75-26.14C1123.84,424,1104,420,1087.19,422.6c-28.38,4.4-59.57,22.77-86,34.54Q893.7,504.08,788.78,556.66c-8.91,4.37-44.83,24-52,23.91l-.65-2.33,3.74-3.84,8.63-6.84c53.18-39.5,105.34-85.78,156.94-127.56,39.45-31.95,81.17-63.72,115.41-101.07,9.13-9.95,16.18-23.33,14.55-37.15-7.15-38.92-32.77-38.92-63.4-34.13-27.86,19.56-76.13,73.25-100.74,100q-76.8,82.7-150.77,168l-4.71,9c-4.15,4.08-4.84,4.9-10.15,7.2-1.52-3.78,1.49-9,3.54-12.68C767.5,433.38,825.3,325.54,872.08,214.23c2-4.81,1.47-21.06,1.32-27-1.84-3.22-7.09-12.6-9.56-14.57-64.86-51.53-90,48.41-104.59,88.27-27,73.66-47.69,136.18-71.66,209.64-4.87,14.93-10.7,33.15-17.06,46.59l-.79,1.65c-2.48,7-2.24,11.44-8,16.9-3.46-5-2-9.75-1.87-17,8.74-115,24.58-238.43,23.31-354.48-.07-6.66-6.61-20.57-9.59-27C651,121,625.85,110,606.53,138.32c-16.4,24-13.25,55.1-11.85,82.82C599.91,324.38,608,427.59,618,530.44c.53,5.35-.52,5.19-3.72,8.8-10-15.91-13.25-43.75-22.18-62.53l-4.49-11.51q-30.92-92.28-63.57-184c-10.27-29.27-21.75-65.48-34.6-93-9.33-20-40.65-37.66-61.53-28.65-26.51,8.32-33.77,46.37-22.62,68.64C452.78,323,499.47,418.52,552,510.67c4.86,8.53,10.77,17.95,14.79,26.62,6.59,8.38,8.78,16.57,12.26,26.55Q569.1,552,559.44,540q-78.75-93.81-163.91-181.95c-31-32.76-66.94-79.11-109.55-93l-21.2,4c-22.47,15.46-31.83,40.52-13.62,64.5,21.8,28.71,57,52.43,84.3,76,46,38.15,91.37,76.27,137,114.68,17.65,14.87,57.86,44.7,71.29,59L542,584.66c-19-5.76-84-40.07-105.36-50.5q-86.91-42.48-175.69-80.93c-34.09-15.1-65.53-36.87-102.32-24.15-39.32,39.41-13.06,68.95,31.87,85.74,48.4,18.1,99.22,30.29,147.94,47.74,38.93,12,117,41.67,151.47,48,7.46,2.29,28.26,9.07,35,10.1l2.22,1.65-2.92,2.47c-7.63.5-30.9-2.18-39.78-3-74.93-1.05-153.92-8.93-229.25-10.51-38.49-.81-80.2-6.92-118.26.26-10.95,2.06-16.43,7-25.59,12.58-12.59,17.89-16.89,40.35,3.12,55,35.27,30,145,4.75,193.16,4.13,70.89-.91,146.11-13.83,217.33-17.19l3.31,3.28-3.08,1.2c-54,15.24-112.49,35.2-165,55.42-45,17.3-102.48,33.54-145.43,52.79-30.71,7.09-77.8,25.05-72.32,64.58,1.53,11.07,14.65,21.57,24.2,26.09,23.62,8.76,43.44,4.93,65-6.54,73.53-39.07,149.16-73.95,223.16-112.15,31.89-16.46,64.76-37,97.35-51.35l3.29-1.43-3.47,3.23c-30.93,28.68-70.81,61-103,88.06L348.2,875.6c-31.34,26.47-66.27,52.36-93.44,82.89-21,23.65-15.94,42.89,2.41,64.65,26,9.52,48.19,8.56,69.91-12,25.67-24.32,49.7-52.44,73.43-78.81q67.29-73.5,132.13-149.19c10.81-12.53,37.36-45.23,48.46-56h0c.36-.35.7-.68,1-1l-.36.93c-12.47,32-43.92,81.07-60.36,113.45-22.68,44.68-45.35,90.25-68.07,134.94-11,21.68-45.33,78.07-51.07,99.12-1.85,9.49.94,25.37,3.09,34.91,20.5,22.23,25.51,20.73,55.55,21.51,15-9.9,23.14-14.36,32.8-29.89,27.39-76.45,55.82-151.71,82.43-228.44,12-34.61,30.26-110.71,44.2-137.63.23,29-5.6,68.07-7.6,98.55l-2,17.87c-.68,11.63-2.29,25-3.37,36.78q-6.21,71.54-11.58,143.14c-2,25.84-5.87,52.87-4.82,78.68,1.61,39.4,20,47,54.25,49,18.9-8.69,36.67-23.29,36.83-45.39.63-88.1-9.44-179.42-14.63-267.37-2.23-37.77-8.33-73-10-109.51,28.29,61.08,108.13,347,140.82,378.95A50.14,50.14,0,0,0,834.08,1130c30.25-.58,47.47-28.59,40.17-56.84-6.77-23.19-19.51-45.57-30.85-67-32.46-61.29-64.18-123.07-95.92-184.7-8-15.51-45.69-73.25-46.18-86.91,4-1.86,4.89-.62,8.17,3.25,76.6,90.2,153.8,181.4,234.55,267.9,32.6,34.92,80.33,37,92-16.81-12.72-52.15-82.58-90.52-113-124.31-22.17-24.65-184.77-150-189.17-164.62,1.7.69,12.65,5,13.47,5.55,103.9,59.18,217.23,112.74,325.26,164.13,53.61,25.51,102.11-39.16,53.69-71.18-26.13-17.28-89.35-37.49-121-48.58q-99.53-35-199.71-68.09c-9.67-3.18-46.71-12.33-51.45-16.2l.82-2.73C759.71,660.81,796.37,667.48,804.86,668ZM574.77,726.54l-.24-.1.26.1.05,0Zm12.67.93a14.81,14.81,0,0,1,1.61.51C588.48,727.77,588,727.61,587.44,727.47Z"/></g></svg>