<svg xmlns="http://www.w3.org/2000/svg" viewBox="0 0 1280 1280"><defs><style>.cls-1{fill:#2c2e1e;}</style></defs><g id="Layer_2" data-name="Layer 2"><path class="cls-1" d="M835.15,673.1c124.59,7,248.95,22.11,373.7,25.84,32,.95,72-16.32,69.57-54.41-1.92-30.49-28.54-48.42-57.71-49-150.59-2.86-302.62,16.59-453.11,24.83-3.16.18-6.32.34-9.48.51q4.17-1.6,9.18-3.37c95-33.54,406.39-110.1,453.89-152C1231,456.83,1237,443,1237.52,430c.49-11.14-2.4-22.8-10.36-30.94-14.41-14.79-38-19.49-57.8-16.42-33.59,5.21-70.51,26.95-101.75,40.88Q940.31,479.1,816.12,541.35c-10.55,5.17-53.07,28.36-61.59,28.3l-.77-2.75,4.43-4.55,10.21-8.1c63-46.76,124.7-101.54,185.78-151,46.7-37.82,96.08-75.42,136.62-119.64,10.8-11.78,19.15-27.61,17.22-44-8.46-46.08-38.79-46.08-75-40.4-33,23.15-90.12,86.7-119.25,118.32q-90.91,97.89-178.47,198.82l-5.58,10.67c-4.91,4.83-5.73,5.8-12,8.52-1.79-4.47,1.77-10.62,4.2-15C790.93,395.42,859.35,267.76,914.73,136c2.39-5.69,1.74-24.93,1.56-32-2.18-3.81-8.4-14.92-11.32-17.25-76.78-61-106.55,57.31-123.81,104.49-31.9,87.2-56.45,161.2-84.82,248.16-5.77,17.67-12.67,39.24-20.2,55.15l-.93,2c-2.94,8.23-2.66,13.54-9.51,20-4.1-5.87-2.36-11.54-2.21-20.12,10.34-136.08,29.09-282.24,27.59-419.62-.08-7.88-7.82-24.35-11.35-32C653,25.66,623.25,12.59,600.38,46.14c-19.41,28.46-15.68,65.23-14,98,6.19,122.21,15.72,244.38,27.64,366.13.63,6.34-.61,6.15-4.4,10.42-11.79-18.83-15.68-51.79-26.25-74L578,433.08q-36.6-109.23-75.25-217.76c-12.16-34.65-25.75-77.51-41-110.07-11-23.64-48.12-44.58-72.83-33.92-31.39,9.85-40,54.89-26.78,81.25,56.18,112.13,111.45,225.25,173.64,334.33,5.76,10.1,12.75,21.25,17.51,31.51,7.8,9.92,10.39,19.62,14.51,31.43q-11.79-14-23.22-28.22-93.22-111-194-215.38c-36.76-38.78-79.24-93.65-129.68-110.09l-25.09,4.76c-26.6,18.3-37.68,48-16.13,76.35,25.81,34,67.46,62.06,99.79,90C333.92,412.4,387.66,457.53,441.62,503c20.89,17.6,68.49,52.91,84.39,69.9L524,574.49c-22.46-6.81-99.45-47.43-124.72-59.77q-102.89-50.3-208-95.81C150.9,401,113.68,375.27,70.13,390.33,23.59,437,54.67,472,107.86,491.82c57.29,21.43,117.45,35.86,175.12,56.51,46.09,14.21,138.51,49.33,179.3,56.8,8.84,2.71,33.46,10.74,41.4,12l2.63,1.95L502.85,622c-9,.59-36.58-2.58-47.09-3.58-88.7-1.25-182.2-10.57-271.37-12.44-45.56-1-94.94-8.2-140,.3-13,2.44-19.45,8.29-30.29,14.89-14.91,21.18-20,47.77,3.69,65.08,41.75,35.54,171.61,5.62,228.65,4.88,83.92-1.07,173-16.37,257.27-20.34l3.91,3.88L504,676.05c-63.92,18-133.16,41.67-195.34,65.6-53.24,20.48-121.31,39.7-172.16,62.49-36.35,8.39-92.09,29.65-85.6,76.45,1.81,13.1,17.34,25.53,28.64,30.88,28,10.37,51.42,5.84,77-7.74,87-46.25,176.57-87.54,264.17-132.76,37.75-19.48,76.66-43.77,115.24-60.78,1.3-.57,2.59-1.14,3.89-1.69-1.35,1.26-2.72,2.54-4.11,3.82-36.61,33.95-83.82,72.2-121.89,104.24L294.58,918.89c-37.1,31.34-78.44,62-110.61,98.13-24.91,28-18.86,50.77,2.86,76.52,30.77,11.27,57,10.14,82.75-14.21,30.39-28.79,58.84-62.08,86.93-93.29q79.65-87,156.4-176.61c12.8-14.83,44.23-53.54,57.37-66.26h0c.43-.42.83-.81,1.22-1.16l-.43,1.1c-14.76,37.94-52,96-71.45,134.29-26.85,52.89-53.68,106.84-80.58,159.74-13,25.66-53.65,92.41-60.45,117.33-2.19,11.24,1.11,30,3.66,41.33,24.27,26.31,30.2,24.54,65.76,25.46,17.72-11.72,27.39-17,38.82-35.38,32.43-90.5,66.08-179.59,97.58-270.42,14.22-41,35.82-131.05,52.32-162.92.27,34.32-6.63,80.58-9,116.66l-2.42,21.15c-.81,13.77-2.71,29.65-4,43.54q-7.35,84.69-13.71,169.44c-2.41,30.59-7,62.59-5.71,93.14,1.91,46.64,23.68,55.61,64.22,58,22.38-10.28,43.41-27.57,43.6-53.73.75-104.29-11.17-212.39-17.32-316.5-2.64-44.71-9.86-86.46-11.79-129.63,33.49,72.3,128,410.75,166.7,448.58A59.32,59.32,0,0,0,869.74,1220c35.81-.69,56.2-33.84,47.55-67.28-8-27.45-23.09-54-36.51-79.29-38.43-72.55-76-145.68-113.55-218.64-9.46-18.36-54.09-86.71-54.67-102.88,4.74-2.2,5.79-.73,9.68,3.85,90.67,106.77,182.06,214.73,277.64,317.12,38.59,41.34,95.09,43.81,108.87-19.89C1093.7,991.23,1011,945.81,975,905.81,948.78,876.63,756.3,728.28,751.1,711c2,.81,15,5.94,15.94,6.57,123,70.05,257.15,133.45,385,194.28,63.46,30.2,120.87-46.35,63.55-84.26-30.93-20.45-105.77-44.37-143.26-57.5Q954.55,728.58,836,689.44c-11.45-3.77-55.29-14.6-60.91-19.18l1-3.23C781.71,664.64,825.1,672.53,835.15,673.1ZM562.79,742.44l-.29-.11.31.11.06,0A.13.13,0,0,1,562.79,742.44Zm15,1.11a16,16,0,0,1,1.91.6C579,743.9,578.39,743.71,577.78,743.55Z"/></g></svg>